<?xml version="1.0" standalone="no"?>
<!DOCTYPE svg PUBLIC "-//W3C//DTD SVG 20010904//EN"
 "http://www.w3.org/TR/2001/REC-SVG-20010904/DTD/svg10.dtd">
<svg version="1.0" xmlns="http://www.w3.org/2000/svg"
 width="499.000000pt" height="499.000000pt" viewBox="0 0 499.000000 499.000000"
 preserveAspectRatio="xMidYMid meet">
<metadata>
Created by potrace 1.14, written by Peter Selinger 2001-2017
</metadata>
<g transform="translate(0.000000,499.000000) scale(0.100000,-0.100000)"
fill="#000000" stroke="none">
<path d="M1697 4892 c-10 -2 -35 -19 -54 -39 -23 -22 -43 -33 -55 -30 -10 3
-16 2 -13 -2 2 -4 -11 -14 -30 -21 -19 -8 -45 -24 -56 -37 -12 -12 -26 -20
-31 -17 -5 3 -7 0 -6 -8 2 -7 -4 -12 -12 -10 -8 2 -12 0 -8 -4 4 -4 -6 -22
-22 -40 -53 -61 -109 -170 -151 -295 -66 -197 -167 -375 -303 -534 -71 -83
-129 -151 -143 -165 -7 -8 -23 -27 -34 -43 -11 -15 -25 -24 -31 -21 -6 4 -8 2
-5 -3 6 -10 -18 -48 -55 -85 -10 -10 -18 -23 -18 -29 0 -6 -15 -37 -32 -68
-18 -31 -33 -60 -35 -66 -1 -5 -7 -23 -13 -40 -22 -61 -57 -194 -48 -189 8 5
12 -15 8 -54 -1 -13 4 -30 10 -38 8 -9 9 -14 2 -14 -6 0 -9 -8 -8 -17 2 -10 7
-45 11 -77 10 -85 93 -247 145 -283 11 -8 20 -22 20 -31 0 -9 14 -31 30 -49
17 -18 30 -38 30 -45 0 -8 5 -19 12 -26 18 -18 -15 -26 -89 -19 -47 5 -73 2
-93 -8 -15 -8 -30 -12 -32 -9 -10 9 -83 -73 -95 -106 -38 -116 -47 -178 -47
-345 -1 -176 9 -398 18 -413 3 -5 7 -19 10 -33 3 -13 10 -42 15 -64 5 -22 16
-58 26 -79 9 -22 15 -50 12 -62 -2 -13 0 -21 4 -18 5 3 9 0 9 -7 0 -7 3 -9 7
-6 8 8 66 -110 68 -139 0 -6 13 -30 29 -52 15 -23 29 -53 30 -67 0 -14 4 -25
7 -25 4 0 3 -16 -1 -35 -4 -19 -6 -35 -4 -35 1 0 -4 -16 -12 -35 -41 -99 8
-220 109 -267 46 -22 146 -23 202 -3 46 17 89 20 80 5 -3 -6 1 -7 9 -4 9 3 14
11 13 17 -1 7 4 11 11 10 6 -2 12 1 12 5 0 12 73 50 87 45 6 -2 18 6 27 19 9
12 16 19 16 15 0 -4 6 -3 13 3 6 6 21 18 32 26 11 9 15 13 9 10 -6 -3 23 30
63 72 40 42 73 81 73 85 0 5 16 28 35 51 19 24 35 52 35 64 0 11 5 24 10 27 6
3 10 14 10 25 0 10 33 59 73 108 39 49 91 114 115 145 54 68 100 110 113 102
5 -4 8 -2 7 3 -2 5 24 33 57 61 33 29 71 62 85 74 41 36 92 119 97 157 4 26
-1 41 -17 60 -12 14 -40 49 -63 79 -22 29 -70 86 -108 126 -38 40 -65 76 -61
80 4 5 2 5 -4 2 -14 -8 -64 30 -61 46 1 7 -4 11 -11 9 -17 -3 -64 33 -54 43 4
3 2 5 -4 3 -16 -5 -75 43 -67 55 4 6 1 7 -6 3 -7 -5 -21 0 -32 10 -19 17 -19
19 -2 26 14 6 12 7 -6 4 -28 -6 -85 30 -75 46 4 6 2 8 -4 4 -6 -3 -17 0 -25 8
-8 8 -17 13 -20 10 -2 -3 -9 9 -15 25 -6 17 -14 31 -18 31 -3 0 -3 -7 0 -15 5
-14 1 -13 -24 1 -16 10 -26 22 -23 27 3 6 1 7 -5 3 -15 -9 -165 105 -153 117
13 13 41 2 81 -33 19 -17 47 -34 63 -37 15 -3 27 -9 27 -14 0 -5 5 -9 10 -9 7
0 7 7 0 21 -25 46 0 39 61 -19 35 -33 80 -74 99 -89 68 -54 92 -78 100 -99 5
-12 21 -24 37 -27 18 -4 34 -15 41 -31 6 -14 17 -26 25 -26 21 0 180 -165 183
-191 1 -5 2 -13 3 -17 0 -5 11 -8 23 -7 21 2 40 32 30 49 -3 5 0 6 5 3 15 -9
23 16 24 71 1 74 13 135 27 140 11 3 12 -17 9 -104 -3 -60 -9 -139 -12 -175
-6 -54 -4 -71 10 -92 22 -34 30 -29 44 30 7 27 19 59 28 72 8 13 11 26 7 30
-5 3 -9 83 -10 176 -1 190 -14 258 -95 485 -42 120 -129 373 -154 450 -8 25
-15 52 -15 61 0 9 -12 38 -26 64 -17 33 -27 70 -30 111 -2 35 -12 89 -23 121
-25 76 -40 143 -46 201 -3 26 -10 84 -16 130 -6 46 -9 86 -5 89 3 3 1 12 -5
19 -6 7 -11 61 -11 121 -1 145 40 309 101 402 8 13 16 29 17 36 3 22 68 105
74 95 4 -7 12 -4 21 6 9 12 10 15 2 10 -24 -14 -13 10 16 38 18 17 34 25 42
21 7 -5 10 -4 6 2 -6 9 43 53 60 53 4 0 17 7 27 15 17 13 18 18 6 40 -7 14
-19 25 -25 25 -6 0 -27 14 -45 30 -25 22 -44 30 -74 31 -23 0 -77 2 -121 3
-44 1 -88 1 -98 -2z m-740 -1673 c1 -18 0 -29 -4 -25 -3 3 -13 -3 -20 -14 -8
-11 -18 -18 -22 -16 -4 3 -8 0 -8 -7 -6 -110 -4 -170 6 -180 6 -6 11 -19 11
-28 0 -10 6 -24 13 -31 7 -7 27 -34 45 -60 18 -26 41 -53 52 -61 11 -8 17 -17
13 -20 -3 -4 1 -7 10 -7 10 0 17 -4 17 -9 0 -14 92 -101 101 -96 4 3 6 -3 4
-14 -2 -14 1 -18 11 -14 17 6 19 -13 2 -23 -6 -4 -20 3 -31 17 -10 13 -22 24
-26 24 -12 1 -96 87 -93 97 1 5 -2 7 -7 4 -5 -4 -27 15 -48 41 -21 27 -40 50
-43 53 -3 3 -18 30 -34 60 -50 96 -48 226 5 299 17 22 34 41 37 41 4 0 8 -14
9 -31z"/>
<path d="M1800 4489 c0 -5 5 -7 10 -4 6 3 10 8 10 11 0 2 -4 4 -10 4 -5 0 -10
-5 -10 -11z"/>
<path d="M4175 3917 c-11 -28 -13 -47 -5 -87 5 -28 12 -55 15 -60 11 -19 6
-148 -9 -200 -42 -153 -80 -237 -150 -328 -35 -48 -223 -221 -234 -217 -7 3
-11 1 -7 -4 7 -13 -123 -104 -137 -95 -7 4 -8 3 -4 -4 4 -6 -6 -19 -21 -29
-15 -9 -45 -30 -65 -46 -21 -15 -42 -26 -47 -23 -5 3 -14 -1 -21 -9 -7 -8 -9
-15 -4 -16 5 0 -15 -11 -43 -24 -29 -13 -53 -29 -53 -34 0 -6 -8 -11 -17 -11
-9 0 -13 -3 -10 -7 4 -4 -11 -13 -33 -20 -22 -8 -57 -25 -77 -38 -20 -14 -42
-25 -49 -25 -8 0 -14 -4 -14 -9 0 -11 -40 -26 -55 -22 -5 1 -7 -1 -3 -5 4 -4
-2 -12 -15 -19 -180 -96 -259 -135 -267 -130 -6 3 -10 2 -10 -3 0 -5 -56 -37
-125 -71 -134 -67 -195 -115 -266 -208 -24 -32 -61 -75 -81 -96 -21 -21 -38
-41 -38 -44 0 -11 -28 -31 -35 -25 -4 4 -5 3 -4 -3 2 -5 -9 -30 -25 -53 -30
-48 -26 -73 5 -32 79 103 101 121 78 64 -7 -16 -14 -40 -16 -54 -2 -13 -9 -30
-15 -37 -7 -9 -4 -14 14 -18 21 -5 200 -13 395 -18 39 -1 69 -5 66 -9 -6 -10
1 -10 32 2 17 7 24 7 20 0 -4 -6 9 -10 32 -10 47 0 126 -22 100 -28 -9 -2 -14
-8 -11 -14 4 -7 2 -8 -4 -4 -7 4 -64 11 -128 17 -64 5 -159 16 -211 25 -70 12
-129 15 -226 10 -124 -5 -258 -23 -271 -37 -31 -31 -71 -259 -45 -259 5 0 9
-42 9 -92 0 -61 5 -102 14 -120 11 -21 12 -36 4 -60 -5 -18 -11 -44 -12 -58
-2 -14 -9 -56 -15 -95 -8 -43 -12 -129 -9 -223 1 -83 2 -152 0 -152 -2 0 -8
14 -14 32 l-11 31 -19 -23 c-17 -21 -18 -39 -15 -204 3 -172 5 -184 32 -251
15 -38 42 -90 59 -114 34 -47 94 -111 105 -111 4 0 16 -8 27 -17 41 -37 134
-33 200 8 22 13 43 22 49 21 5 -2 7 0 3 4 -4 4 4 20 17 36 14 16 26 36 26 44
2 22 4 28 17 52 7 12 16 20 21 18 4 -3 14 3 23 13 9 10 38 26 64 36 27 9 71
28 98 41 37 18 53 21 63 13 9 -9 13 -8 13 0 0 7 5 9 10 6 6 -3 17 1 26 10 9 8
36 21 60 27 24 7 44 15 44 19 0 4 12 12 28 18 53 22 122 67 115 75 -5 4 -3 7
2 5 17 -4 65 13 65 23 0 5 -6 6 -12 3 -7 -3 -4 0 6 7 10 7 28 23 39 36 11 12
24 22 29 22 5 0 20 11 33 24 14 14 38 33 55 42 16 10 30 22 30 27 0 5 15 23
33 41 17 18 44 47 59 64 15 18 32 32 37 32 5 0 13 9 16 20 3 11 11 20 16 20 5
0 9 7 9 17 0 9 11 31 25 49 14 18 25 38 25 44 0 6 5 8 12 4 7 -4 8 -3 4 5 -4
6 -3 17 2 24 18 22 45 111 44 142 -3 46 -35 105 -80 148 -13 12 -34 32 -46 45
-13 12 -31 22 -40 22 -22 0 -21 16 2 16 23 2 67 11 141 30 34 8 83 19 109 24
118 22 190 48 255 89 60 40 71 51 69 72 -1 4 6 6 15 5 19 -1 111 128 138 196
11 25 22 45 25 43 3 -2 6 4 7 13 1 9 13 58 26 107 26 94 57 350 58 484 0 42 4
99 10 126 5 28 12 66 15 85 3 19 10 40 14 45 4 6 6 19 4 30 -4 28 60 215 111
320 78 164 96 232 94 361 -1 93 -5 120 -22 151 -12 23 -19 54 -18 79 1 28 -5
48 -19 64 -11 13 -20 28 -20 34 0 17 -49 68 -100 103 -56 38 -104 59 -159 68
-40 7 -42 6 -56 -28z m-1158 -2123 c-3 -3 -12 -4 -19 -1 -8 3 -5 6 6 6 11 1
17 -2 13 -5z"/>
</g>
</svg>
